<svg id="Layer_1" data-name="Layer 1" xmlns="http://www.w3.org/2000/svg" viewBox="0 0 535.33 513"><defs><style>.cls-1{font-size:15.5px;font-family:Futura-Medium, Futura;}.cls-2{letter-spacing:2.01em;}.cls-3{letter-spacing:-0.04em;}.cls-4{letter-spacing:0.01em;}.cls-5{letter-spacing:-0.02em;}.cls-6{letter-spacing:-0.02em;}.cls-7{letter-spacing:0.03em;}.cls-8{letter-spacing:0.02em;}.cls-9{letter-spacing:0.02em;}.cls-10{letter-spacing:0em;}.cls-11{letter-spacing:0.02em;}.cls-12{letter-spacing:0em;}.cls-13{letter-spacing:-0.01em;}.cls-14{letter-spacing:0.02em;}.cls-15{letter-spacing:-0.04em;}.cls-16{letter-spacing:-0.06em;}.cls-17{letter-spacing:0.03em;}.cls-18{letter-spacing:-0.01em;}.cls-19{letter-spacing:0.01em;}.cls-20{letter-spacing:0.04em;}.cls-21{letter-spacing:0.04em;}.cls-22{letter-spacing:0em;}.cls-23{letter-spacing:-0.01em;}.cls-24{letter-spacing:0em;}.cls-25{letter-spacing:-0.02em;}.cls-26{letter-spacing:0.04em;}.cls-27{letter-spacing:0.02em;}.cls-28{letter-spacing:-0.02em;}.cls-29{letter-spacing:-0.01em;}.cls-30{letter-spacing:0.01em;}.cls-31{letter-spacing:-0.02em;}.cls-32{letter-spacing:-0.03em;}.cls-33{letter-spacing:0.04em;}.cls-34{letter-spacing:0.01em;}.cls-35{letter-spacing:0em;}.cls-36{letter-spacing:0.04em;}.cls-37{letter-spacing:0em;}.cls-38{letter-spacing:-0.02em;}.cls-39{letter-spacing:0.03em;}.cls-40{letter-spacing:0.01em;}.cls-41{letter-spacing:-0.06em;}.cls-42{letter-spacing:-0.03em;}.cls-43{letter-spacing:0.01em;}.cls-44{letter-spacing:0.01em;}.cls-45{letter-spacing:0.02em;}.cls-46{letter-spacing:0.03em;}.cls-47{letter-spacing:-0.02em;}.cls-48{letter-spacing:0.02em;}.cls-49{letter-spacing:0.02em;}.cls-50{letter-spacing:0.04em;}.cls-51{letter-spacing:0em;}.cls-52{fill:#26bcd7;}.cls-53{fill:#003768;}.cls-54{fill:#b6bf00;}.cls-55{fill:#e98300;}.cls-56{fill:#a31a7e;}.cls-57{fill:#8ba4ba;}.cls-58{fill:#00ad83;}.cls-59{fill:#111200;}.cls-60{fill:#88dae9;}.cls-61{fill:#f4e501;}.cls-62{fill:#e7ecf1;}</style></defs><title>Colour Code</title><text class="cls-1" transform="translate(19 22.78)"><tspan class="cls-2">	</tspan><tspan x="36" y="0">Clinical </tspan><tspan class="cls-3" x="92.26" y="0">T</tspan><tspan x="99.1" y="0">eam Member – </tspan><tspan class="cls-4" x="212.93" y="0">N</tspan><tspan x="226.19" y="0">ursing </tspan><tspan class="cls-2" x="0" y="37.2">	</tspan><tspan x="36" y="37.2">Clinical </tspan><tspan class="cls-3" x="92.26" y="37.2">T</tspan><tspan x="99.1" y="37.2">eam Member – P</tspan><tspan class="cls-5" x="221.3" y="37.2">h</tspan><tspan x="229.55" y="37.2">ysician or Ps</tspan><tspan class="cls-6" x="316.5" y="37.2">y</tspan><tspan class="cls-7" x="324.61" y="37.2">c</tspan><tspan x="332.4" y="37.2">hiat</tspan><tspan class="cls-8" x="358.29" y="37.2">r</tspan><tspan x="364.32" y="37.2">ist </tspan><tspan class="cls-2" x="0" y="74.4">	</tspan><tspan x="36" y="74.4">Clinical </tspan><tspan class="cls-3" x="92.26" y="74.4">T</tspan><tspan x="99.1" y="74.4">eam Member – O</tspan><tspan class="cls-9" x="226.78" y="74.4">t</tspan><tspan class="cls-10" x="231.32" y="74.4">her Heal</tspan><tspan class="cls-11" x="292.08" y="74.4">t</tspan><tspan class="cls-12" x="296.63" y="74.4">h P</tspan><tspan class="cls-13" x="318.28" y="74.4">r</tspan><tspan x="323.94" y="74.4">o</tspan><tspan class="cls-8" x="333.25" y="74.4">f</tspan><tspan x="338.09" y="74.4">essionals </tspan><tspan class="cls-2" x="0" y="90.4">	</tspan><tspan x="36" y="90.4">(Pha</tspan><tspan class="cls-14" x="67.84" y="90.4">r</tspan><tspan x="73.87" y="90.4">mac</tspan><tspan class="cls-15" x="102.81" y="90.4">y</tspan><tspan x="110.57" y="90.4">, Social </tspan><tspan class="cls-16" x="167.67" y="90.4">W</tspan><tspan x="183.15" y="90.4">o</tspan><tspan class="cls-14" x="192.47" y="90.4">r</tspan><tspan class="cls-17" x="198.5" y="90.4">k</tspan><tspan x="206.7" y="90.4">, The</tspan><tspan class="cls-18" x="240.81" y="90.4">r</tspan><tspan x="246.51" y="90.4">apeutics, Diagnostics, </tspan><tspan class="cls-19" x="402.59" y="90.4">e</tspan><tspan x="411.3" y="90.4">tc.) </tspan><tspan class="cls-2" x="0" y="122.4">	</tspan><tspan x="36" y="122.4">Clinical Suppo</tspan><tspan class="cls-20" x="137.65" y="122.4">r</tspan><tspan x="144.01" y="122.4">t Se</tspan><tspan class="cls-21" x="170.64" y="122.4">r</tspan><tspan x="177.1" y="122.4">vices – </tspan><tspan class="cls-22" x="230.51" y="122.4">A</tspan><tspan x="241.97" y="122.4">dminist</tspan><tspan class="cls-23" x="290.27" y="122.4">r</tspan><tspan class="cls-24" x="295.97" y="122.4">ati</tspan><tspan class="cls-25" x="313.36" y="122.4">v</tspan><tspan x="320.88" y="122.4">e Suppo</tspan><tspan class="cls-26" x="379.63" y="122.4">r</tspan><tspan x="385.99" y="122.4">t, Heal</tspan><tspan class="cls-27" x="432.89" y="122.4">t</tspan><tspan class="cls-24" x="437.44" y="122.4">h </tspan><tspan class="cls-2" x="0" y="138.4">	</tspan><tspan class="cls-5" x="36" y="138.4">R</tspan><tspan x="45.08" y="138.4">eco</tspan><tspan class="cls-18" x="70.36" y="138.4">r</tspan><tspan x="76.05" y="138.4">ds, E</tspan><tspan class="cls-28" x="109.97" y="138.4">n</tspan><tspan x="118.23" y="138.4">vi</tspan><tspan class="cls-29" x="129.88" y="138.4">r</tspan><tspan x="135.54" y="138.4">onmen</tspan><tspan class="cls-30" x="182.69" y="138.4">t</tspan><tspan x="187.06" y="138.4">al Se</tspan><tspan class="cls-21" x="222.61" y="138.4">r</tspan><tspan x="229.08" y="138.4">vices (E</tspan><tspan class="cls-31" x="282.2" y="138.4">V</tspan><tspan x="292.39" y="138.4">S) and </tspan><tspan class="cls-32" x="343.75" y="138.4">P</tspan><tspan x="351.71" y="138.4">atient </tspan><tspan class="cls-13" x="395.19" y="138.4">F</tspan><tspan x="402.94" y="138.4">ood Se</tspan><tspan class="cls-33" x="453.26" y="138.4">r</tspan><tspan class="cls-24" x="459.72" y="138.4">vices </tspan><tspan class="cls-2"><tspan x="0" y="154.4">	</tspan></tspan><tspan class="cls-2" x="0" y="170.4">	</tspan><tspan x="36" y="170.4">Co</tspan><tspan class="cls-14" x="56.18" y="170.4">r</tspan><tspan x="62.21" y="170.4">po</tspan><tspan class="cls-18" x="80.82" y="170.4">r</tspan><tspan x="86.51" y="170.4">a</tspan><tspan class="cls-34" x="95.8" y="170.4">t</tspan><tspan class="cls-35" x="100.18" y="170.4">e Suppo</tspan><tspan class="cls-20" x="158.92" y="170.4">r</tspan><tspan x="165.28" y="170.4">t Se</tspan><tspan class="cls-36" x="191.92" y="170.4">r</tspan><tspan class="cls-10" x="198.38" y="170.4">vices – </tspan><tspan class="cls-2" x="0" y="189">	</tspan><tspan x="36" y="189">(</tspan><tspan class="cls-37" x="41.68" y="189">F</tspan><tspan x="49.58" y="189">inance, I</tspan><tspan class="cls-38" x="109.84" y="189">T</tspan><tspan x="117.05" y="189">, HR, PMO, Ris</tspan><tspan class="cls-17" x="223.05" y="189">k</tspan><tspan x="231.25" y="189">, Legal, </tspan><tspan class="cls-34" x="288.26" y="189">e</tspan><tspan x="296.97" y="189">tc.) </tspan><tspan class="cls-2" x="0" y="226.2">	</tspan><tspan x="36" y="226.2">Building Se</tspan><tspan class="cls-21" x="114.66" y="226.2">r</tspan><tspan x="121.12" y="226.2">vices, Ma</tspan><tspan class="cls-30" x="188.78" y="226.2">t</tspan><tspan x="193.16" y="226.2">e</tspan><tspan class="cls-8" x="201.73" y="226.2">r</tspan><tspan class="cls-10" x="207.76" y="226.2">ials Management, Logistics, Secu</tspan><tspan class="cls-8" x="439.23" y="226.2">r</tspan><tspan x="445.27" y="226.2">ity </tspan><tspan class="cls-2" x="0" y="263.4">	</tspan><tspan class="cls-5" x="36" y="263.4">R</tspan><tspan x="45.08" y="263.4">esea</tspan><tspan class="cls-29" x="77.82" y="263.4">r</tspan><tspan class="cls-39" x="83.48" y="263.4">c</tspan><tspan x="91.26" y="263.4">h</tspan><tspan class="cls-2" x="0" y="300.6">	</tspan><tspan x="36" y="300.6">Supe</tspan><tspan class="cls-21" x="71.35" y="300.6">r</tspan><tspan x="77.81" y="300.6">visors, Managers, Di</tspan><tspan class="cls-18" x="223.33" y="300.6">r</tspan><tspan x="229.02" y="300.6">ec</tspan><tspan class="cls-40" x="244.98" y="300.6">t</tspan><tspan x="249.33" y="300.6">ors and Leadership </tspan><tspan class="cls-3" x="388.52" y="300.6">T</tspan><tspan x="395.36" y="300.6">eam </tspan><tspan class="cls-2" x="0" y="337.8">	</tspan><tspan class="cls-41" x="36" y="337.8">V</tspan><tspan x="45.54" y="337.8">olun</tspan><tspan class="cls-34" x="75.66" y="337.8">t</tspan><tspan x="80.03" y="337.8">eers</tspan><tspan class="cls-2" x="0" y="375">	</tspan><tspan class="cls-42" x="36" y="375">P</tspan><tspan x="43.95" y="375">atients and </tspan><tspan class="cls-43" x="125.6" y="375">V</tspan><tspan class="cls-35" x="136.24" y="375">isi</tspan><tspan class="cls-44" x="150.24" y="375">t</tspan><tspan class="cls-35" x="154.59" y="375">ors </tspan><tspan class="cls-2" x="0" y="412.2">	</tspan><tspan x="36" y="412.2">Thi</tspan><tspan class="cls-18" x="55.84" y="412.2">r</tspan><tspan x="61.53" y="412.2">d </tspan><tspan class="cls-32" x="75.6" y="412.2">P</tspan><tspan x="83.56" y="412.2">a</tspan><tspan class="cls-20" x="92.85" y="412.2">r</tspan><tspan x="99.21" y="412.2">ty </tspan><tspan class="cls-45" x="116.66" y="412.2">S</tspan><tspan class="cls-30" x="125.96" y="412.2">t</tspan><tspan x="130.33" y="412.2">a</tspan><tspan class="cls-46" x="139.63" y="412.2">f</tspan><tspan x="144.74" y="412.2">f: Hon</tspan><tspan class="cls-47" x="188.09" y="412.2">e</tspan><tspan x="196.4" y="412.2">y</tspan><tspan class="cls-28" x="204.83" y="412.2">w</tspan><tspan x="216.59" y="412.2">ell, A</tspan><tspan class="cls-18" x="253.93" y="412.2">r</tspan><tspan x="259.62" y="412.2">ama</tspan><tspan class="cls-48" x="290.47" y="412.2">r</tspan><tspan class="cls-17" x="296.5" y="412.2">k</tspan><tspan x="304.7" y="412.2">, </tspan><tspan class="cls-49" x="314.27" y="412.2">T</tspan><tspan x="322.02" y="412.2">im Ho</tspan><tspan class="cls-50" x="363.61" y="412.2">r</tspan><tspan class="cls-44" x="369.97" y="412.2">t</tspan><tspan x="374.31" y="412.2">o</tspan><tspan class="cls-51" x="383.63" y="412.2">n</tspan><tspan x="392.14" y="412.2">’s </tspan></text><circle class="cls-52" cx="16" cy="16" r="16"/><circle class="cls-53" cx="16" cy="54" r="16"/><circle class="cls-54" cx="16" cy="94" r="16"/><circle class="cls-55" cx="16" cy="142" r="16"/><circle class="cls-56" cx="16" cy="190" r="16"/><circle class="cls-57" cx="16" cy="239" r="16"/><circle class="cls-58" cx="16" cy="279" r="16"/><circle class="cls-59" cx="16" cy="317" r="16"/><circle class="cls-60" cx="16" cy="355" r="16"/><circle class="cls-61" cx="16" cy="393" r="16"/><circle class="cls-62" cx="16" cy="432" r="16"/></svg>